# xmcd
#
# Track frame offsets:
#	150
#	16297
#	35753
#	50395
#	66482
#	85505
#	104101
#	121747
#	137937
#	150472
#
# Disc length: 2269 seconds
#
# Revision: 1
# Processed by: cddbd v1.4PL0 Copyright (c) Steve Scherf et al.
# Submitted via: audiograbber 1.82.00
#
DISCID=8408db0a
DTITLE=Mike Finnegan - Black and White
DYEAR=1980
DGENRE=
TTITLE0=Just One Minute More
TTITLE1=How Wrong Can You Be
TTITLE2=The Words
TTITLE3=Can't Keep A Secret
TTITLE4=I Could Never Leave You
TTITLE5=Sailfish
TTITLE6=Expressway To Your Heart
TTITLE7=Love Might Keep Us Forever
TTITLE8=Let Me Love You
TTITLE9=Hideaway From Love
EXTD=
EXTT0=
EXTT1=
EXTT2=
EXTT3=
EXTT4=
EXTT5=
EXTT6=
EXTT7=
EXTT8=
EXTT9=
PLAYORDER=
